<svg xmlns="http://www.w3.org/2000/svg" version="1.1" xmlns:xlink="http://www.w3.org/1999/xlink" xmlns:svgjs="http://svgjs.dev/svgjs" width="1000" height="1000" viewBox="0 0 1000 1000"><g transform="matrix(1,0,0,1,0,1.1368683772161603e-13)"><svg viewBox="0 0 280 280" data-background-color="#ffffff" preserveAspectRatio="xMidYMid meet" height="1000" width="1000" xmlns="http://www.w3.org/2000/svg" xmlns:xlink="http://www.w3.org/1999/xlink"><defs></defs><g id="tight-bounds" transform="matrix(1,0,0,1,0,-2.842170943040401e-14)"><svg viewBox="0 0 280 280" height="280" width="280"><g><svg viewBox="0 0 280 280" height="280" width="280"><g><svg viewBox="0 0 280 280" height="280" width="280"><g><svg viewBox="0 0 280 280" height="280" width="280"><g><svg viewBox="0 0 280 280" height="280" width="280"><g transform="matrix(1,0,0,1,99.22509549563677,74.00336708925556)"><svg viewBox="0 0 81.54980900872648 131.99326582148888" height="131.99326582148888" width="81.54980900872648"><g><svg xmlns="http://www.w3.org/2000/svg" xmlns:xlink="http://www.w3.org/1999/xlink" version="1.1" x="0" y="0" viewBox="28.097320556640625 13.727805137634277 43.786521911621094 70.8711166381836" enable-background="new 0 0 100 100" xml:space="preserve" height="131.99326582148888" width="81.54980900872648" class="icon-o-0" data-fill-palette-color="accent" id="o-0"><path d="M49.8 34.3C50 44.7 57.6 55 56.1 66.2c-1.6 11.2-9 19.4-16.7 18.3-7.7-1.1-12.6-11.1-11-22.3C30 50.7 49.6 23 49.8 34.3zM62.1 44.9c-4.5-0.6-7.4-6.4-6.5-13 0.9-6.6 6.9-11.1 8.6-16.9 1.9-6.3 8.5 12.5 7.6 19.2C70.9 40.7 66.6 45.5 62.1 44.9zM70.9 34.2c0-0.4 0.1-0.7 0.1-0.7-0.1 0-1.4 4.6-5.8 6.6-7.2 3.3-4.4 3.6-3.8 3.9C65.2 45.2 70 40.5 70.9 34.2z" fill="#ff908b" data-fill-palette-color="accent"></path></svg></g></svg></g><path d="M33.204 101.923v0l-3.286 9.364-26.244-9.211 3.286-9.363c1.5-4.274 4.188-6.513 8.064-6.718v0c2.232-0.122 4.929 0.372 8.091 1.481v0c6.598 2.316 10.18 5.419 10.745 9.309v0c0.221 1.551 0.002 3.264-0.656 5.138zM22.066 90.466v0c-5.036-1.768-8.569-1.741-10.598 0.081v0c-0.824 0.728-1.468 1.752-1.93 3.071v0l-2.263 6.448 21.088 7.401 2.263-6.448c1.572-4.48-1.281-7.998-8.56-10.553zM29.614 77.726c3.417 2.215 6.165 3.357 8.243 3.426 2.078 0.069 3.951-1.183 5.619-3.757 1.671-2.578 2.063-4.783 1.174-6.613-0.885-1.836-3.048-3.869-6.487-6.099-3.44-2.23-6.245-3.393-8.415-3.49-2.171-0.097-4.075 1.119-5.714 3.647-1.639 2.528-1.973 4.754-1.002 6.678 0.971 1.923 3.165 3.993 6.582 6.208zM39.914 61.982c4.162 2.698 6.746 5.316 7.752 7.854 1.001 2.535 0.368 5.55-1.897 9.045-2.266 3.495-4.782 5.289-7.549 5.382-2.769 0.083-6.206-1.206-10.313-3.867-4.101-2.658-6.71-5.304-7.828-7.939-1.114-2.64-0.556-5.68 1.673-9.119 2.23-3.44 4.775-5.199 7.636-5.279 2.861-0.079 6.369 1.228 10.526 3.923zM56.045 64.991l-2.209 2.116-13.721-25.369 4.878-4.672 24.747 14.809-2.202 2.11-6.396-3.778-8.594 8.231zM45.142 40.596l-1.507 1.442 7.491 13.925 7.604-7.283zM66.761 23.484v0c-3.39 2.16-4.272 4.516-2.645 7.068v0c0.907 1.424 1.918 2.154 3.032 2.19 1.12 0.032 3.041-0.446 5.764-1.434 2.723-0.989 4.852-1.376 6.387-1.16 1.535 0.215 2.922 1.295 4.16 3.238v0c3.064 4.809 2.099 8.803-2.894 11.985v0c-1.653 1.053-3.843 2.182-6.57 3.385v0l-1.335 0.604-1.106-2.346c3.331-1.549 5.799-2.835 7.401-3.856v0c3.345-2.131 4.018-4.767 2.018-7.906v0c-0.808-1.268-1.754-1.945-2.837-2.031-1.089-0.083-2.762 0.323-5.019 1.218v0c-3.001 1.119-5.342 1.586-7.022 1.401-1.675-0.189-3.182-1.333-4.52-3.433v0c-2.679-4.205-1.498-7.915 3.546-11.128v0c1.648-1.05 3.733-2.139 6.256-3.268v0l1.255-0.564 1.169 2.353c-3.386 1.624-5.733 2.852-7.04 3.684zM93.811 37.975l-2.866 1.068-2.556-28.729 6.329-2.359 16.862 23.397-2.858 1.065-4.378-6.001-11.15 4.156zM93.457 11.255l-1.954 0.729 1.365 15.752 9.866-3.677zM119.794 30.056l-3.056 0.456-4.11-27.507 5.728-0.856 14.238 23.232 0.835-0.125-3.707-24.805 3.016-0.451 4.11 27.507-5.599 0.837-14.405-23.207-0.757 0.113zM160.844 18.116l-4.6-0.415 0.249-2.76 7.638 0.689-1.228 13.603c-3.415 0.337-6.444 0.386-9.089 0.147v0c-4.03-0.364-6.721-1.777-8.075-4.239-1.347-2.462-1.802-6.114-1.365-10.955 0.437-4.841 1.539-8.359 3.306-10.552 1.774-2.194 4.649-3.111 8.626-2.753v0c2.48 0.224 5.031 0.72 7.655 1.489v0l1.333 0.37-0.35 2.551c-3.254-0.859-6.097-1.398-8.531-1.617v0c-3.067-0.277-5.215 0.424-6.443 2.101-1.229 1.678-2.029 4.578-2.401 8.7-0.372 4.122-0.104 7.118 0.804 8.989 0.908 1.871 2.883 2.943 5.924 3.217v0c1.873 0.169 3.799 0.157 5.778-0.037v0zM180.62 6.164l-5.935 18.522c-1.227 3.828 0.229 6.405 4.366 7.73v0c2.144 0.687 3.903 0.753 5.276 0.199 1.376-0.561 2.387-1.85 3.034-3.868v0l5.934-18.521 2.904 0.93-5.91 18.446c-0.95 2.964-2.422 4.857-4.417 5.678-1.995 0.821-4.521 0.742-7.579-0.239-3.065-0.982-5.158-2.383-6.279-4.202-1.114-1.817-1.197-4.208-0.247-7.172v0l5.911-18.445zM208.7 49.911l-14.592-8.556 14.067-23.993 14.593 8.556-1.382 2.357-11.927-6.994-4.859 8.286 9.854 5.778-1.361 2.322-9.854-5.778-5.085 8.672 11.928 6.994zM227.07 54.045v0l-5.23-4.775-6.316 6.917-2.282-2.083 18.754-20.539 7.512 6.859c2.235 2.041 3.387 4.093 3.457 6.157 0.08 2.063-0.901 4.213-2.941 6.447v0c-4.264 4.67-8.582 5.009-12.954 1.017zM232.436 37.665l-8.754 9.588 5.2 4.748c2.827 2.581 5.758 2.209 8.795-1.116v0c1.442-1.58 2.168-3.047 2.176-4.402 0.004-1.36-0.735-2.716-2.217-4.069v0zM242.852 65.375c-3.35 2.316-5.452 4.422-6.307 6.318-0.855 1.895-0.411 4.104 1.333 6.626 1.748 2.527 3.637 3.729 5.668 3.604 2.035-0.119 4.738-1.344 8.11-3.675 3.372-2.331 5.515-4.482 6.432-6.452 0.916-1.97 0.518-4.194-1.196-6.673-1.714-2.478-3.645-3.635-5.793-3.47-2.148 0.165-4.897 1.406-8.247 3.722zM253.487 80.895c-4.08 2.821-7.485 4.213-10.215 4.177-2.725-0.04-5.272-1.773-7.641-5.2-2.369-3.426-3.069-6.436-2.101-9.029 0.977-2.592 3.479-5.279 7.504-8.063 4.02-2.779 7.46-4.184 10.321-4.214 2.865-0.025 5.463 1.649 7.795 5.02 2.331 3.372 2.989 6.395 1.972 9.07-1.016 2.675-3.562 5.421-7.635 8.239zM244.563 94.666l-1.116-2.848 28.683-3.033 2.463 6.289-23.114 17.248-1.112-2.839 5.927-4.477-4.34-11.08zM271.273 93.868l-0.761-1.942-15.728 1.627 3.841 9.804zM14.183 192.454v0l-3.355-9.518 26.653-9.393 3.355 9.518c1.53 4.341 0.823 7.823-2.121 10.447v0c-1.685 1.514-4.133 2.836-7.344 3.968v0c-6.702 2.362-11.514 2.183-14.438-0.535v0c-1.164-1.092-2.081-2.588-2.75-4.487zM30.302 194.441v0c5.109-1.801 7.888-4.065 8.338-6.793v0c0.186-1.105 0.044-2.326-0.427-3.663v0l-2.308-6.548-21.407 7.544 2.308 6.549c1.602 4.547 6.101 5.517 13.496 2.911zM35.981 205.684c-3.47 2.256-5.665 4.334-6.585 6.236-0.929 1.899-0.544 4.157 1.156 6.772 1.7 2.615 3.586 3.889 5.658 3.821 2.067-0.064 4.847-1.231 8.34-3.502 3.492-2.27 5.735-4.391 6.727-6.363 0.989-1.978 0.65-4.249-1.017-6.815-1.671-2.571-3.6-3.801-5.788-3.69-2.191 0.105-5.021 1.285-8.491 3.541zM46.331 221.751c-4.225 2.747-7.721 4.063-10.488 3.95-2.77-0.118-5.309-1.952-7.615-5.499-2.31-3.553-2.933-6.632-1.868-9.235 1.066-2.612 3.681-5.272 7.845-7.979 4.164-2.707 7.702-4.031 10.615-3.973 2.912 0.058 5.504 1.833 7.774 5.325 2.27 3.492 2.848 6.58 1.733 9.263-1.106 2.685-3.771 5.401-7.996 8.148zM42.068 237.118l-2.241-2.141 25.132-15.073 4.963 4.741-13.914 25.792-2.248-2.148 3.551-6.664-8.74-8.351zM66.346 224.952l-1.537-1.469-13.794 8.239 7.735 7.39zM83.605 237.7v0c-3.447-2.194-5.997-1.992-7.651 0.606v0c-0.921 1.447-1.157 2.694-0.708 3.741 0.452 1.041 1.715 2.603 3.788 4.684 2.083 2.079 3.355 3.874 3.815 5.383 0.464 1.504 0.068 3.242-1.187 5.214v0c-3.115 4.894-7.211 5.725-12.29 2.492v0c-1.676-1.067-3.652-2.599-5.928-4.597v0l-1.133-0.957 1.684-2.036c2.86 2.401 5.105 4.121 6.737 5.159v0c3.397 2.162 6.11 1.648 8.14-1.542v0c0.818-1.285 1.035-2.446 0.651-3.483-0.389-1.041-1.482-2.407-3.278-4.1v0c-2.324-2.28-3.758-4.233-4.301-5.858-0.552-1.623-0.148-3.505 1.214-5.645v0c2.717-4.268 6.636-4.772 11.759-1.511v0c1.676 1.067 3.579 2.517 5.708 4.352v0l1.053 0.917-1.659 2.088c-2.947-2.425-5.085-4.061-6.414-4.907zM86.636 268.41l-2.904-1.082 17.138-23.772 6.432 2.397-2.599 29.189-2.913-1.085 0.631-7.525-11.328-4.221zM104.137 247.646l-1.992-0.742-9.419 13.016 10.025 3.735zM116.688 277.403l-3.114-0.466 4.188-27.948 5.815 0.871 6.932 26.802 0.845 0.127 3.775-25.198 3.075 0.461-4.188 27.948-5.697-0.854-7.089-26.825-0.767-0.115zM160.679 266.497l-4.679 0.42-0.252-2.799 7.766-0.698 1.242 13.821c-3.358 0.96-6.379 1.56-9.064 1.801v0c-4.096 0.368-7.041-0.558-8.836-2.776-1.801-2.212-2.923-5.778-3.364-10.698-0.443-4.927 0.025-8.646 1.401-11.157 1.37-2.517 4.076-3.956 8.119-4.319v0c2.519-0.226 5.159-0.191 7.918 0.106v0l1.408 0.123 0.115 2.613c-3.415-0.265-6.355-0.287-8.822-0.065v0c-3.12 0.28-5.14 1.369-6.06 3.267-0.927 1.898-1.201 4.945-0.824 9.139 0.376 4.188 1.189 7.134 2.439 8.837 1.244 1.71 3.413 2.426 6.506 2.148v0c1.9-0.171 3.821-0.536 5.766-1.096v0zM169.553 247.213l6.018 18.829c1.244 3.892 3.966 5.167 8.167 3.824v0c2.183-0.698 3.679-1.683 4.488-2.957 0.803-1.272 0.877-2.933 0.222-4.982v0l-6.017-18.829 2.961-0.947 5.994 18.754c0.962 3.009 0.859 5.44-0.308 7.293-1.164 1.86-3.302 3.287-6.411 4.281-3.116 0.996-5.672 1.069-7.668 0.219-2-0.842-3.481-2.767-4.442-5.776v0l-5.994-18.753zM218.989 254.999l-14.842 8.682-14.268-24.393 14.841-8.682 1.405 2.401-12.124 7.091 4.925 8.42 10.014-5.858 1.385 2.367-10.015 5.858 5.151 8.805 12.123-7.091zM227.898 234.508v0l-5.318 4.842 6.406 7.037-2.329 2.119-19.023-20.898 7.647-6.961c2.272-2.068 4.456-3.044 6.55-2.927 2.095 0.117 4.178 1.314 6.251 3.592v0c4.324 4.75 4.263 9.149-0.184 13.196zM211.835 227.545l8.879 9.755 5.282-4.808c2.879-2.621 2.779-5.624-0.301-9.007v0c-1.467-1.611-2.883-2.484-4.251-2.619-1.372-0.13-2.815 0.494-4.328 1.872v0zM236.463 218.027c3.4 2.36 6.154 3.606 8.262 3.74 2.11 0.142 4.054-1.068 5.832-3.631 1.778-2.562 2.244-4.79 1.398-6.683-0.841-1.889-2.972-4.022-6.394-6.396-3.422-2.375-6.233-3.649-8.434-3.823-2.205-0.168-4.18 1.005-5.924 3.518-1.748 2.519-2.158 4.77-1.229 6.753 0.925 1.988 3.088 4.162 6.489 6.522zM247.425 202.372c4.14 2.873 6.681 5.612 7.622 8.216 0.938 2.61 0.2 5.652-2.213 9.129-2.416 3.482-5.031 5.222-7.843 5.22-2.822 0-6.272-1.415-10.353-4.246-4.08-2.832-6.644-5.607-7.692-8.325-1.048-2.718-0.384-5.788 1.991-9.21 2.375-3.422 5.015-5.124 7.921-5.107 2.904 0.008 6.426 1.449 10.567 4.323zM263.263 200.512l-1.136 2.884-23.451-17.575 2.516-6.386 29.137 3.138-1.14 2.893-7.511-0.77-4.43 11.248zM242.826 182.63l-0.779 1.978 12.84 9.658 3.92-9.953zM4.415 143.728c0-5.962 4.833-10.795 10.795-10.795 5.962 0 10.795 4.833 10.796 10.795 0 5.962-4.833 10.795-10.796 10.795-5.962 0-10.795-4.833-10.795-10.795zM254.735 143.728c0-5.962 4.833-10.795 10.796-10.795 5.962 0 10.795 4.833 10.795 10.795 0 5.962-4.833 10.795-10.795 10.795-5.962 0-10.795-4.833-10.796-10.795z" fill="#fc8580" data-fill-palette-color="primary"></path></svg></g></svg></g></svg></g><g></g></svg></g></svg><rect width="280" height="280" fill="none" stroke="none" visibility="hidden"></rect></g></svg></g></svg>